# xmcd
#
# Track frame offsets:
#	150
#	15849
#	33681
#	49036
#	71286
#	85804
#	103787
#	119694
#	137521
#	156799
#	170738
#	181905
#	204982
#
# Disc length: 2968 seconds
#
# Revision: 0
# Processed by: cddbd v1.5.1PL2 Copyright (c) Steve Scherf et al.
# Submitted via: dBpowerAMP V4.0
#
DISCID=a70b960d
DTITLE=Randall Terry - Dark Sunglasses Day
DYEAR=2003
DGENRE=Country
TTITLE0=Dark Sunglasses Day
TTITLE1=Your Eyes
TTITLE2=Let Those Cookies Burn
TTITLE3=Daddy's Girl
TTITLE4=Headin' For Nashville
TTITLE5=United We Stand
TTITLE6=Slow Down Baby
TTITLE7=Playin' The Ring
TTITLE8=Got It Bad For You Girl
TTITLE9=I Do
TTITLE10=Do What You Want (The Honeymoon Song)
TTITLE11=Baby Please Don't Leave Me Like This
TTITLE12=I Believe In You 
EXTD=
EXTT0=
EXTT1=
EXTT2=
EXTT3=
EXTT4=
EXTT5=
EXTT6=
EXTT7=
EXTT8=
EXTT9=
EXTT10=
EXTT11=
EXTT12=
PLAYORDER=
